<svg width="80" height="28" viewBox="0 0 80 28" fill="none" xmlns="http://www.w3.org/2000/svg">
<path d="M65.972 27.725C73.4811 27.725 79.591 21.5405 79.591 13.94C79.591 6.33503 73.4811 0.155029 65.972 0.155029C58.4614 0.155029 52.353 6.33503 52.353 13.94C52.353 21.5405 58.4614 27.725 65.972 27.725ZM65.972 9.02453C68.648 9.02453 70.8274 11.2295 70.8274 13.9385C70.8274 16.6475 68.6466 18.8495 65.9705 18.8495C63.2929 18.8495 61.1166 16.6475 61.1166 13.937C61.1166 11.225 63.2944 9.02153 65.9705 9.02153L65.972 9.02453ZM14.5897 27.725C22.0988 27.725 28.2087 21.5405 28.2087 13.94C28.2087 6.33503 22.0988 0.155029 14.5897 0.155029C7.0821 0.155029 0.970703 6.33503 0.970703 13.94C0.970703 21.5405 7.0821 27.725 14.5897 27.725ZM14.5897 9.02453C17.2673 9.02453 19.4451 11.2295 19.4451 13.9385C19.4451 16.6475 17.2673 18.8495 14.5897 18.8495C11.9136 18.8495 9.73728 16.6475 9.73728 13.937C9.73728 11.225 11.9151 9.02153 14.5897 9.02153V9.02453ZM40.2734 8.71403L36.0922 0.335029H26.3023L35.4463 18.665V27.2945H45.1019V18.665L54.2459 0.335029H44.4516L40.2749 8.71403H40.2734Z" fill="#EE2E24"/>
</svg>
