<svg width="91" height="30" viewBox="0 0 91 30" fill="none" xmlns="http://www.w3.org/2000/svg">
<g clip-path="url(#clip0_112_6021)">
<path d="M38.8136 15.3848C38.8136 19.5489 35.5297 22.6174 31.4996 22.6174C27.4695 22.6174 24.1855 19.5489 24.1855 15.3848C24.1855 11.1913 27.4695 8.15216 31.4996 8.15216C35.5297 8.15216 38.8136 11.1913 38.8136 15.3848ZM35.6118 15.3848C35.6118 12.7826 33.7086 11.0022 31.4996 11.0022C29.2906 11.0022 27.3873 12.7826 27.3873 15.3848C27.3873 17.9609 29.2906 19.7674 31.4996 19.7674C33.7086 19.7674 35.6118 17.9576 35.6118 15.3848Z" fill="#EA4335"/>
<path d="M54.5929 15.3848C54.5929 19.5489 51.309 22.6174 47.2789 22.6174C43.2488 22.6174 39.9648 19.5489 39.9648 15.3848C39.9648 11.1946 43.2488 8.15216 47.2789 8.15216C51.309 8.15216 54.5929 11.1913 54.5929 15.3848ZM51.3911 15.3848C51.3911 12.7826 49.4879 11.0022 47.2789 11.0022C45.0699 11.0022 43.1666 12.7826 43.1666 15.3848C43.1666 17.9609 45.0699 19.7674 47.2789 19.7674C49.4879 19.7674 51.3911 17.9576 51.3911 15.3848Z" fill="#FBBC05"/>
<path d="M69.7135 8.58912V21.5739C69.7135 26.9152 66.5381 29.0967 62.7841 29.0967C59.2503 29.0967 57.1235 26.7522 56.3214 24.8348L59.109 23.6837C59.6054 24.8609 60.8216 26.25 62.7808 26.25C65.1837 26.25 66.6728 24.7793 66.6728 22.0109V20.9706H66.5611C65.8445 21.8478 64.4638 22.6141 62.7216 22.6141C59.0761 22.6141 55.7363 19.4641 55.7363 15.4109C55.7363 11.3282 59.0761 8.15216 62.7216 8.15216C64.4606 8.15216 65.8412 8.91846 66.5611 9.76955H66.6728V8.59238H69.7135V8.58912ZM66.8997 15.4109C66.8997 12.8641 65.187 11.0022 63.0076 11.0022C60.7986 11.0022 58.9479 12.8641 58.9479 15.4109C58.9479 17.9315 60.7986 19.7674 63.0076 19.7674C65.187 19.7674 66.8997 17.9315 66.8997 15.4109Z" fill="#4285F4"/>
<path d="M74.7263 0.978271V22.1739H71.6035V0.978271H74.7263Z" fill="#34A853"/>
<path d="M86.896 17.7652L89.3812 19.4087C88.5791 20.5859 86.6462 22.6141 83.3064 22.6141C79.1645 22.6141 76.0713 19.4381 76.0713 15.3815C76.0713 11.0804 79.1908 8.14893 82.9481 8.14893C86.7317 8.14893 88.5824 11.1359 89.1872 12.75L89.5192 13.5718L79.7727 17.5761C80.5189 19.0272 81.6793 19.7674 83.3064 19.7674C84.9369 19.7674 86.0677 18.9718 86.896 17.7652ZM79.2467 15.1631L85.762 12.4794C85.4036 11.5761 84.3254 10.9468 83.0566 10.9468C81.4294 10.9468 79.1645 12.3718 79.2467 15.1631Z" fill="#EA4335"/>
<path d="M12.365 13.5033V10.4348H22.7887C22.8906 10.9696 22.9432 11.6022 22.9432 12.287C22.9432 14.5891 22.3088 17.4359 20.2641 19.4641C18.2754 21.5185 15.7344 22.6141 12.3683 22.6141C6.12918 22.6141 0.882812 17.5728 0.882812 11.3837C0.882812 5.19456 6.12918 0.153259 12.3683 0.153259C15.8198 0.153259 18.2787 1.49674 20.1261 3.24782L17.9434 5.41304C16.6186 4.18043 14.8238 3.22174 12.365 3.22174C7.80894 3.22174 4.24562 6.86413 4.24562 11.3837C4.24562 15.9033 7.80894 19.5457 12.365 19.5457C15.3202 19.5457 17.0032 18.3685 18.0814 17.2989C18.9558 16.4315 19.5311 15.1924 19.7579 13.5L12.365 13.5033Z" fill="#4285F4"/>
</g>
<defs>
<clipPath id="clip0_112_6021">
<rect width="89.4118" height="30" fill="white" transform="translate(0.764648)"/>
</clipPath>
</defs>
</svg>
