<svg width="116" height="26" viewBox="0 0 116 26" fill="none" xmlns="http://www.w3.org/2000/svg">
<g clip-path="url(#clip0_112_6012)">
<path d="M41.118 14.8518L40.4336 16.7791H40.3766C40.2625 16.3445 40.0534 15.6831 39.7112 14.8895L36.0422 5.7253H32.4492V20.3314H34.8255V11.3183C34.8255 10.7515 34.8255 10.109 34.8065 9.31542C34.7875 8.91861 34.7495 8.61629 34.7305 8.38954H34.7875C34.9016 8.9564 35.0346 9.3721 35.1297 9.63664L39.5401 20.2936H41.2131L45.5855 9.54216C45.6805 9.29652 45.7756 8.80524 45.8706 8.38954H45.9277C45.8706 9.46658 45.8326 10.4302 45.8136 11.016V20.2747H48.342V5.68751H44.8821L41.118 14.8518ZM50.7373 9.80669H53.2087V20.2747H50.7373V9.80669ZM51.992 5.38518C51.5738 5.38518 51.2316 5.53635 50.9464 5.80088C50.6613 6.06542 50.5092 6.40553 50.5092 6.82123C50.5092 7.21803 50.6613 7.55815 50.9464 7.82268C51.2316 8.08722 51.5738 8.21949 51.992 8.21949C52.4103 8.21949 52.7715 8.06832 53.0376 7.82268C53.3228 7.55815 53.4749 7.21803 53.4749 6.82123C53.4749 6.42443 53.3228 6.08431 53.0376 5.80088C52.7905 5.53635 52.4293 5.38518 51.992 5.38518ZM61.9725 9.71222C61.5163 9.61774 61.041 9.56105 60.5848 9.56105C59.4632 9.56105 58.4366 9.80669 57.5811 10.298C56.7256 10.7893 56.0413 11.4695 55.604 12.3198C55.1478 13.189 54.9196 14.1904 54.9196 15.343C54.9196 16.3445 55.1478 17.2326 55.585 18.0451C56.0223 18.8387 56.6306 19.4811 57.448 19.9157C58.2275 20.3503 59.14 20.577 60.1665 20.577C61.3452 20.577 62.3528 20.3314 63.1512 19.8779L63.1702 19.859V17.5916L63.0752 17.6672C62.714 17.9317 62.2957 18.1584 61.8775 18.2907C61.4403 18.4419 61.041 18.5175 60.6988 18.5175C59.7103 18.5175 58.9309 18.234 58.3796 17.6105C57.8092 17.0058 57.5241 16.1744 57.5241 15.1352C57.5241 14.0581 57.8092 13.2079 58.3986 12.5843C58.9879 11.9608 59.7673 11.6395 60.7179 11.6395C61.5163 11.6395 62.3338 11.9041 63.0752 12.4331L63.1702 12.5087V10.109L63.1512 10.0901C62.828 9.95786 62.4668 9.80669 61.9725 9.71222ZM70.1281 9.63664C69.5197 9.63664 68.9494 9.82559 68.4551 10.2224C68.0369 10.5625 67.7517 11.0538 67.5046 11.6395H67.4856V9.80669H65.0142V20.2747H67.4856V14.9273C67.4856 14.0204 67.6757 13.2645 68.0939 12.7166C68.5122 12.1497 69.0445 11.8663 69.6908 11.8663C69.9189 11.8663 70.1471 11.923 70.4322 11.9608C70.6984 12.0363 70.8885 12.1119 71.0216 12.2064L71.1166 12.282V9.82559L71.0596 9.80669C70.8885 9.69332 70.5463 9.63664 70.1281 9.63664ZM76.8578 9.57995C75.1278 9.57995 73.7401 10.0901 72.7705 11.0916C71.782 12.093 71.3067 13.4724 71.3067 15.2108C71.3067 16.8358 71.801 18.1584 72.7515 19.1221C73.702 20.0669 74.9948 20.5581 76.6106 20.5581C78.3026 20.5581 79.6523 20.048 80.6219 19.0276C81.6104 18.0073 82.0857 16.6468 82.0857 14.9651C82.0857 13.3023 81.6294 11.9797 80.6979 11.016C79.8044 10.0523 78.4927 9.57995 76.8578 9.57995ZM78.8349 17.6294C78.3786 18.2151 77.6562 18.4986 76.7627 18.4986C75.8692 18.4986 75.1468 18.2151 74.6336 17.5916C74.1203 17.0058 73.8731 16.1555 73.8731 15.0785C73.8731 13.9637 74.1393 13.1134 74.6336 12.5087C75.1468 11.9041 75.8502 11.6018 76.7437 11.6018C77.6182 11.6018 78.3026 11.8852 78.7969 12.4709C79.2911 13.0567 79.5573 13.907 79.5573 15.0218C79.5193 16.1555 79.3101 17.0436 78.8349 17.6294ZM87.5987 14.1526C86.8193 13.8314 86.325 13.5858 86.0969 13.3779C85.9068 13.189 85.8117 12.9244 85.8117 12.5843C85.8117 12.3009 85.9258 12.0174 86.211 11.8285C86.4961 11.6395 86.8193 11.5451 87.2946 11.5451C87.7128 11.5451 88.15 11.6206 88.5683 11.734C88.9865 11.8474 89.3667 12.0175 89.6709 12.2442L89.7659 12.3198V10.0145L89.7089 9.99565C89.4237 9.88228 89.0435 9.7689 88.5873 9.67443C88.131 9.59885 87.7128 9.56105 87.3706 9.56105C86.1919 9.56105 85.2224 9.84448 84.462 10.468C83.7016 11.0538 83.3404 11.8474 83.3404 12.7733C83.3404 13.2645 83.4164 13.6991 83.5875 14.0581C83.7586 14.4172 84.0057 14.7573 84.3479 15.0407C84.6901 15.3052 85.1844 15.6076 85.8688 15.891C86.4391 16.1366 86.8763 16.3256 87.1425 16.4768C87.4086 16.6279 87.5797 16.798 87.7128 16.9302C87.8078 17.0814 87.8649 17.2704 87.8649 17.516C87.8649 18.2151 87.3326 18.5552 86.249 18.5552C85.8307 18.5552 85.3935 18.4797 84.8802 18.3096C84.3669 18.1395 83.8917 17.8939 83.4925 17.6105L83.3974 17.5349V19.9346L83.4544 19.9535C83.8156 20.1236 84.2529 20.2369 84.7852 20.3692C85.3175 20.4637 85.7927 20.5393 86.211 20.5393C87.4847 20.5393 88.5302 20.2558 89.2717 19.6323C90.0321 19.0276 90.4313 18.2529 90.4313 17.2515C90.4313 16.5523 90.2412 15.9288 89.823 15.4564C89.2717 15.0029 88.5873 14.5305 87.5987 14.1526ZM96.9519 9.57995C95.2219 9.57995 93.8342 10.0901 92.8646 11.0916C91.8951 12.093 91.4008 13.4724 91.4008 15.2108C91.4008 16.8358 91.8951 18.1584 92.8456 19.1221C93.7962 20.0669 95.0889 20.5581 96.7048 20.5581C98.3967 20.5581 99.7465 20.048 100.716 19.0276C101.705 18.0073 102.18 16.6468 102.18 14.9651C102.18 13.3023 101.724 11.9797 100.792 11.016C99.8985 10.0523 98.5868 9.57995 96.9519 9.57995ZM98.91 17.6294C98.4537 18.2151 97.7313 18.4986 96.8378 18.4986C95.9253 18.4986 95.2219 18.2151 94.7087 17.5916C94.1954 17.0058 93.9482 16.1555 93.9482 15.0785C93.9482 13.9637 94.2144 13.1134 94.7087 12.5087C95.2219 11.9041 95.9253 11.6018 96.8188 11.6018C97.6743 11.6018 98.3777 11.8852 98.872 12.4709C99.3662 13.0567 99.6324 13.907 99.6324 15.0218C99.6324 16.1555 99.3853 17.0436 98.91 17.6294ZM115.392 11.8285V9.80669H112.902V6.70786L112.826 6.72675L110.468 7.42588L110.411 7.44478V9.80669H106.685V8.48402C106.685 7.87937 106.837 7.40699 107.104 7.10466C107.37 6.80233 107.769 6.65117 108.263 6.65117C108.605 6.65117 108.967 6.72675 109.366 6.89681L109.461 6.9535V4.81832L109.404 4.79943C109.062 4.68606 108.605 4.61047 108.016 4.61047C107.275 4.61047 106.628 4.78053 106.039 5.06396C105.45 5.38518 105.012 5.81978 104.689 6.40553C104.366 6.97239 104.195 7.61483 104.195 8.35175V9.80669H102.465V11.8096H104.195V20.2747H106.685V11.8285H110.411V17.2137C110.411 19.4244 111.457 20.5393 113.548 20.5393C113.89 20.5393 114.251 20.4826 114.594 20.4259C114.955 20.3503 115.221 20.2558 115.373 20.1802L115.392 20.1613V18.1395L115.297 18.2151C115.145 18.3096 115.012 18.3852 114.784 18.4419C114.594 18.4986 114.423 18.5175 114.289 18.5175C113.795 18.5175 113.453 18.4041 113.206 18.1206C112.978 17.8561 112.864 17.4215 112.864 16.7791V11.8285H115.392Z" fill="#737373"/>
<path d="M0.587891 0.8125H12.2413V12.3953H0.587891V0.8125Z" fill="#F25022"/>
<path d="M13.458 0.8125H25.1115V12.3953H13.458V0.8125Z" fill="#7FBA00"/>
<path d="M0.587891 13.6047H12.2413V25.1875H0.587891V13.6047Z" fill="#00A4EF"/>
<path d="M13.458 13.6047H25.1115V25.1875H13.458V13.6047Z" fill="#FFB900"/>
</g>
<defs>
<clipPath id="clip0_112_6012">
<rect width="114.824" height="24.375" fill="white" transform="translate(0.587891 0.8125)"/>
</clipPath>
</defs>
</svg>
