<svg width="97" height="30" viewBox="0 0 97 30" fill="none" xmlns="http://www.w3.org/2000/svg">
<path d="M27.789 21.2615C27.6369 20.8959 27.4944 20.5115 27.3423 20.1834L26.639 18.6178L26.6105 18.5897C24.5196 14.0897 22.2861 9.51466 19.9196 5.01466L19.8246 4.82716C19.587 4.38653 19.3494 3.89903 19.1023 3.44903C18.7982 2.91466 18.5035 2.34278 18.0188 1.79903C17.5464 1.23009 16.9517 0.771709 16.2779 0.456959C15.604 0.142209 14.8678 -0.0210571 14.1222 -0.0210571C13.3766 -0.0210571 12.6403 0.142209 11.9665 0.456959C11.2926 0.771709 10.698 1.23009 10.2255 1.79903C9.77883 2.34278 9.44619 2.91466 9.14206 3.44903C8.90446 3.93653 8.66686 4.41466 8.41975 4.85528L8.32471 5.04278C5.99622 9.54278 3.72476 14.1178 1.63387 18.6178L1.57685 18.674C1.36776 19.1615 1.12065 19.6678 0.883051 20.2115C0.730987 20.5397 0.578922 20.8959 0.426858 21.2897C0.0163142 22.3207 -0.114785 23.4395 0.0464797 24.5357C0.207745 25.632 0.655808 26.6679 1.34651 27.5413C2.03721 28.4147 2.94672 29.0955 3.98538 29.5166C5.02405 29.9377 6.15603 30.0846 7.26976 29.9428C8.33751 29.8041 9.36567 29.4533 10.292 28.9115C11.5276 28.2272 12.7156 27.2334 14.0461 25.799C15.3767 27.2334 16.5932 28.2272 17.8002 28.9209C18.961 29.593 20.2754 29.9639 21.6209 29.999C23.1789 30.0054 24.6867 29.4555 25.8658 28.451C27.045 27.4464 27.8158 26.0549 28.0361 24.5334C28.2906 23.4401 28.2045 22.2964 27.789 21.2522V21.2615ZM14.1412 22.8178C12.5065 20.7553 11.442 18.8615 11.0809 17.2397C10.9313 16.6387 10.899 16.0151 10.9858 15.4022C11.0524 14.924 11.2329 14.5022 11.4801 14.1459C12.0503 13.3303 13.0482 12.824 14.1412 12.824C14.6602 12.8084 15.1751 12.9201 15.6396 13.1492C16.104 13.3783 16.5036 13.7175 16.8023 14.1365C17.0494 14.5115 17.23 14.924 17.287 15.4022C17.3821 15.9459 17.344 16.574 17.192 17.2397C16.8308 18.8334 15.7664 20.7459 14.1412 22.8178ZM26.2493 24.2053C26.1413 24.9777 25.8301 25.7088 25.3465 26.3256C24.8629 26.9424 24.2239 27.4235 23.4932 27.7209C22.7708 28.0209 21.9725 28.1053 21.1932 28.0209C20.4329 27.9272 19.6725 27.6834 18.8932 27.2334C17.5992 26.4445 16.4357 25.4643 15.4432 24.3272C17.4391 21.8897 18.6461 19.6678 19.1023 17.6897C19.3209 16.7522 19.3494 15.9084 19.2544 15.1303C19.1357 14.3927 18.8569 13.6892 18.437 13.0678C17.9576 12.394 17.3178 11.8466 16.5737 11.4739C15.8296 11.1012 15.0041 10.9145 14.1697 10.9303C12.4114 10.9303 10.8433 11.7365 9.89288 13.0584C9.46504 13.6782 9.18854 14.3874 9.08504 15.1303C8.96148 15.9178 8.99 16.7897 9.2371 17.6897C9.69329 19.6678 10.9288 21.9178 12.8962 24.3459C11.9205 25.5048 10.7543 26.4936 9.44619 27.2709C8.65735 27.7209 7.90654 27.9553 7.14621 28.049C5.9638 28.1984 4.76939 27.8814 3.82261 27.167C2.87583 26.4525 2.2532 25.3982 2.09006 24.2334C1.99502 23.4834 2.06155 22.7334 2.36568 21.8897C2.46072 21.5897 2.60328 21.2897 2.75535 20.9334C2.96444 20.4459 3.21154 19.9397 3.44914 19.4334L3.48716 19.3678C5.54003 14.8959 7.78298 10.3303 10.1115 5.85841L10.2065 5.67091C10.4441 5.22091 10.6817 4.74278 10.9288 4.29278C11.1759 3.81466 11.442 3.35528 11.7842 2.98028C12.0803 2.63155 12.4504 2.3511 12.8683 2.15867C13.2862 1.96625 13.7418 1.86652 14.203 1.86652C14.6641 1.86652 15.1197 1.96625 15.5376 2.15867C15.9555 2.3511 16.3256 2.63155 16.6217 2.98028C16.9544 3.35528 17.23 3.81466 17.4771 4.29278C17.7147 4.74278 17.9523 5.23028 18.1994 5.67091L18.2944 5.85841C20.6134 10.3303 22.8564 14.8959 24.9473 19.3678L24.9758 19.3959C25.2229 19.8834 25.432 20.4272 25.6696 20.8959C25.8216 21.2615 25.9737 21.5522 26.0688 21.8615C26.2493 22.7053 26.3444 23.4553 26.2493 24.2053ZM39.4789 22.6115C38.7628 22.6219 38.0534 22.473 37.4036 22.176C36.7537 21.879 36.1799 21.4415 35.7249 20.8959C34.7023 19.7334 34.1596 18.2344 34.2042 16.6959C34.1886 15.1239 34.7488 13.5992 35.7819 12.4022C36.2597 11.8496 36.8546 11.4071 37.5245 11.1059C38.1945 10.8046 38.9233 10.6518 39.6595 10.6584C40.3523 10.6397 41.0385 10.7951 41.6537 11.11C42.2688 11.4249 42.7927 11.8889 43.176 12.4584L43.2711 10.9865H46.0462V22.3115H43.2616L43.1665 20.6615C42.7713 21.2697 42.2251 21.768 41.5797 22.1093C40.9343 22.4506 40.2111 22.6235 39.4789 22.6115ZM40.2013 19.9115C40.7525 19.9115 41.2372 19.7615 41.6934 19.4897C42.1116 19.1897 42.4537 18.7959 42.7198 18.3178C42.9574 17.8397 43.081 17.2678 43.081 16.6303C43.118 16.0766 43.0088 15.5229 42.7639 15.0233C42.519 14.5238 42.1469 14.0955 41.6839 13.7803C41.239 13.5069 40.7254 13.3619 40.2013 13.3619C39.6771 13.3619 39.1635 13.5069 38.7186 13.7803C38.3004 14.0803 37.9583 14.474 37.6922 14.9522C37.4409 15.4794 37.3172 16.0571 37.331 16.6397C37.294 17.1933 37.4032 17.747 37.6481 18.2466C37.893 18.7462 38.2651 19.1745 38.7281 19.4897C39.1748 19.7615 39.6595 19.9115 40.2013 19.9115ZM50.7983 7.93028C50.7983 8.25841 50.7412 8.55841 50.5892 8.80216C50.4371 9.03653 50.228 9.25216 49.9524 9.40216C49.6768 9.55216 49.3822 9.60841 49.078 9.60841C48.7739 9.60841 48.4698 9.55216 48.1941 9.40216C47.9335 9.25901 47.7143 9.05246 47.5574 8.80216C47.4102 8.53509 47.338 8.23409 47.3483 7.93028C47.3483 7.59278 47.4148 7.29278 47.5574 7.05841C47.7094 6.77716 47.928 6.60841 48.1941 6.45841C48.4698 6.30841 48.7644 6.24278 49.078 6.24278C49.3805 6.23591 49.6797 6.30658 49.9462 6.4479C50.2128 6.58922 50.4376 6.79635 50.5987 7.04903C50.737 7.32236 50.8055 7.62488 50.7983 7.93028ZM47.5669 22.274V10.9678H50.5892V22.2928H47.5574L47.5669 22.274ZM58.6676 13.9303V13.9678C58.525 13.9022 58.335 13.874 58.1924 13.8459C58.0023 13.8084 57.8503 13.8084 57.6697 13.8084C56.8238 13.8084 56.187 14.0522 55.7689 14.5584C55.3127 15.074 55.1036 15.7959 55.1036 16.724V22.2834H52.0718V10.9584H54.8565L54.9515 12.674C55.2556 12.074 55.6168 11.624 56.13 11.2865C56.6405 10.9586 57.2415 10.7948 57.8503 10.8178C58.0688 10.8178 58.2779 10.8365 58.4585 10.874C58.5535 10.9022 58.6106 10.9022 58.6676 10.9303V13.9303ZM59.8841 22.274V6.31778H62.9064V12.4115C63.3341 11.8678 63.8188 11.4459 64.427 11.1178C65.39 10.6521 66.4839 10.52 67.5323 10.7428C68.5807 10.9656 69.5224 11.5304 70.2055 12.3459C71.2303 13.5108 71.7732 15.0136 71.7262 16.5553C71.7418 18.1273 71.1816 19.652 70.1485 20.849C69.6706 21.4016 69.0758 21.8441 68.4058 22.1453C67.7359 22.4466 67.0071 22.5993 66.2708 22.5928C65.5781 22.6115 64.8918 22.4561 64.2767 22.1412C63.6615 21.8263 63.1377 21.3623 62.7543 20.7928L62.6593 22.2647L59.8841 22.2928V22.274ZM65.7291 19.9115C66.2708 19.9115 66.7555 19.7615 67.2117 19.4897C67.6299 19.1897 67.9721 18.7959 68.2382 18.3178C68.4853 17.8397 68.5993 17.2678 68.5993 16.6303C68.5993 16.0022 68.4853 15.4303 68.2382 14.9522C67.9886 14.4911 67.6379 14.0908 67.2117 13.7803C66.7669 13.5069 66.2532 13.3619 65.7291 13.3619C65.205 13.3619 64.6913 13.5069 64.2465 13.7803C63.8188 14.0803 63.4862 14.474 63.2105 14.9522C62.9592 15.4794 62.8356 16.0571 62.8494 16.6397C62.8123 17.1933 62.9216 17.747 63.1665 18.2466C63.4114 18.7462 63.7835 19.1745 64.2465 19.4897C64.6932 19.7615 65.1779 19.9115 65.7291 19.9115ZM72.8666 22.2834V10.9584H75.6513L75.7464 12.4303C76.0963 11.8661 76.5927 11.4043 77.1842 11.0928C77.7757 10.7813 78.4408 10.6313 79.1108 10.6584C79.8769 10.6454 80.6299 10.8554 81.2757 11.2623C81.9214 11.6691 82.4312 12.2548 82.7413 12.9459C83.074 13.6584 83.2545 14.5397 83.2545 15.524V22.3115H80.2228V15.9178C80.2228 15.1303 80.0422 14.5115 79.681 14.0522C79.3199 13.6022 78.8257 13.3584 78.1984 13.3584C77.7422 13.3584 77.343 13.4522 76.9914 13.6584C76.6587 13.874 76.3831 14.1459 76.174 14.5303C75.9626 14.9188 75.8578 15.3551 75.8699 15.7959V22.2834H72.8666ZM84.7657 22.2834V6.30841H87.7975V12.4022C88.2081 11.8554 88.7423 11.4105 89.3577 11.103C89.9731 10.7954 90.6526 10.6336 91.3425 10.6303C92.0586 10.6199 92.768 10.7688 93.4179 11.0658C94.0678 11.3628 94.6415 11.8003 95.0966 12.3459C96.1141 13.5108 96.6531 15.0089 96.6077 16.5459C96.6242 18.118 96.0639 19.643 95.03 20.8397C94.5522 21.3922 93.9573 21.8347 93.2874 22.136C92.6174 22.4372 91.8887 22.59 91.1524 22.5834C90.4596 22.6021 89.7734 22.4467 89.1582 22.1318C88.5431 21.817 88.0192 21.3529 87.6359 20.7834L87.5504 22.2553L84.7657 22.2834ZM90.6392 19.9115C91.1904 19.9115 91.6751 19.7615 92.1218 19.4897C92.5495 19.1897 92.8821 18.7959 93.1578 18.3178C93.3954 17.8397 93.5189 17.2678 93.5189 16.6303C93.556 16.0766 93.4467 15.5229 93.2018 15.0233C92.9569 14.5238 92.5848 14.0955 92.1218 13.7803C91.677 13.5069 91.1633 13.3619 90.6392 13.3619C90.1151 13.3619 89.6014 13.5069 89.1566 13.7803C88.7384 14.0803 88.3962 14.474 88.1301 14.9522C87.8648 15.4747 87.7405 16.0559 87.769 16.6397C87.7319 17.1933 87.8412 17.747 88.0861 18.2466C88.3309 18.7462 88.7031 19.1745 89.1661 19.4897C89.6127 19.7615 90.0689 19.9115 90.6392 19.9115Z" fill="#FF385C"/>
</svg>
