<svg width="50" height="51" viewBox="0 0 50 51" fill="none" xmlns="http://www.w3.org/2000/svg">
<rect y="0.5" width="50" height="50" rx="25" fill="#1D1E25"/>
<path fill-rule="evenodd" clip-rule="evenodd" d="M25.2634 19.4638C25.6149 19.1123 26.1847 19.1123 26.5362 19.4638L31.9362 24.8638C32.2877 25.2153 32.2877 25.7851 31.9362 26.1366L26.5362 31.5366C26.1847 31.8881 25.6149 31.8881 25.2634 31.5366C24.9119 31.1851 24.9119 30.6153 25.2634 30.2638L29.127 26.4002L18.6998 26.4002C18.2027 26.4002 17.7998 25.9973 17.7998 25.5002C17.7998 25.0031 18.2027 24.6002 18.6998 24.6002H29.127L25.2634 20.7366C24.9119 20.3851 24.9119 19.8153 25.2634 19.4638Z" fill="white"/>
</svg>
