<svg width="50" height="51" viewBox="0 0 50 51" fill="none" xmlns="http://www.w3.org/2000/svg">
<rect x="49.5" y="50" width="49" height="49" rx="24.5" transform="rotate(-180 49.5 50)" fill="white"/>
<path fill-rule="evenodd" clip-rule="evenodd" d="M24.7366 31.5362C24.3851 31.8877 23.8153 31.8877 23.4638 31.5362L18.0638 26.1362C17.7123 25.7847 17.7123 25.2149 18.0638 24.8634L23.4638 19.4634C23.8153 19.1119 24.3851 19.1119 24.7366 19.4634C25.0881 19.8149 25.0881 20.3847 24.7366 20.7362L20.873 24.5998L31.3002 24.5998C31.7973 24.5998 32.2002 25.0027 32.2002 25.4998C32.2002 25.9969 31.7973 26.3998 31.3002 26.3998L20.873 26.3998L24.7366 30.2634C25.0881 30.6149 25.0881 31.1847 24.7366 31.5362Z" fill="#CED1D8"/>
<rect x="49.5" y="50" width="49" height="49" rx="24.5" transform="rotate(-180 49.5 50)" stroke="#CED1D8"/>
</svg>
